<svg width="8" height="20" viewBox="0 0 8 20" fill="currentColor" xmlns="http://www.w3.org/2000/svg">
<path fill-rule="evenodd" clip-rule="evenodd" d="M4.00028 17.9998C2.89728 17.9998 2.00028 17.1028 2.00028 15.9998C2.00028 14.8968 2.89728 13.9998 4.00028 13.9998C5.10328 13.9998 6.00028 14.8968 6.00028 15.9998C6.00028 17.1028 5.10328 17.9998 4.00028 17.9998ZM5.00028 12.1407V2.99575L5.42428 3.41975C5.81428 3.80975 6.44828 3.80975 6.83828 3.41875C7.22828 3.02775 7.22828 2.39475 6.83628 2.00475L5.41028 0.58275C4.63128 -0.19425 3.36928 -0.19425 2.59028 0.58275L1.16428 2.00375C0.772282 2.39475 0.772282 3.02775 1.16228 3.41875C1.55328 3.80975 2.18628 3.80975 2.57628 3.41975L3.00028 2.99575V12.1407C0.992282 12.6607 -0.411718 14.6837 0.109282 16.9487C0.441282 18.3877 1.60828 19.5567 3.04628 19.8897C5.67028 20.4958 8.00028 18.5198 8.00028 15.9998C8.00028 14.1378 6.72228 12.5868 5.00028 12.1407Z" fill="currentColor"/>
</svg>
