<svg width="36" height="36" viewBox="0 0 36 36" fill="none" xmlns="http://www.w3.org/2000/svg">
<path fill-rule="evenodd" clip-rule="evenodd" d="M18 35C27.3888 35 35 27.3888 35 18C35 8.61116 27.3888 1 18 1C8.61116 1 1 8.61116 1 18C1 27.3888 8.61116 35 18 35Z" fill="white" fill-opacity="0.01" stroke="#979797" stroke-width="0.708333"/>
<path fill-rule="evenodd" clip-rule="evenodd" d="M16.3907 19.6688V15.1795C17.9845 15.9294 19.2189 16.6539 20.6787 17.4349C19.4747 18.1027 17.9845 18.8518 16.3907 19.6688ZM25.2728 12.9463C24.9979 12.5841 24.5293 12.3025 24.0305 12.2091C22.5642 11.9307 13.4168 11.9299 11.9513 12.2091C11.5513 12.2841 11.1951 12.4652 10.8891 12.7469C9.59971 13.9436 10.0037 20.3612 10.3145 21.4008C10.4452 21.8507 10.6141 22.1754 10.8269 22.3885C11.101 22.6701 11.4764 22.864 11.9075 22.9509C13.1148 23.2006 19.3344 23.3403 24.005 22.9884C24.4353 22.9134 24.8162 22.7132 25.1166 22.4196C26.3087 21.2276 26.2275 14.4494 25.2728 12.9463ZM23.8182 14.2759C23.5983 14.0172 23.2234 13.8161 22.8244 13.7494C21.6514 13.5505 14.3334 13.5499 13.161 13.7494C12.841 13.8029 12.5561 13.9323 12.3113 14.1335C11.2798 14.9883 11.603 19.5723 11.8516 20.3148C11.9562 20.6362 12.0913 20.8682 12.2615 21.0203C12.4808 21.2215 12.7811 21.36 13.126 21.4221C14.0918 21.6005 19.0675 21.7002 22.804 21.4489C23.1482 21.3953 23.4529 21.2523 23.6933 21.0426C24.647 20.1912 24.582 15.3496 23.8182 14.2759Z" fill="#979797"/>
</svg>
